<svg xmlns="http://www.w3.org/2000/svg" width="256" height="256" viewBox="0 0 100 100"><rect width="100" height="100" rx="50" fill="#e1ddea"></rect><path d="M54.41 60.40L54.41 60.40Q53.71 60.96 52.59 61.31Q51.47 61.66 50 61.66L50 61.66Q48.18 61.66 46.95 61.20Q45.73 60.75 45.24 59.56L45.24 59.56Q42.37 52.42 40.41 47.38Q38.45 42.34 37.26 38.77L37.26 38.77L36.91 38.77Q36.70 43.45 36.52 47.38Q36.35 51.30 36.21 55.04Q36.07 58.79 35.89 62.64Q35.72 66.48 35.44 70.97L35.44 70.97Q34.74 71.17 33.69 71.39Q32.64 71.59 31.45 71.59L31.45 71.59Q26.76 71.59 26.76 68.09L26.76 68.09Q26.76 66.98 26.86 64.63Q26.97 62.29 27.14 59.17Q27.32 56.06 27.56 52.34Q27.81 48.64 28.05 44.86Q28.30 41.08 28.58 37.40Q28.86 33.73 29.07 30.58L29.07 30.58Q29.63 29.88 31.13 29.14Q32.64 28.41 35.02 28.41L35.02 28.41Q37.68 28.41 39.33 29.28Q40.97 30.16 41.81 32.19L41.81 32.19Q42.72 34.36 43.73 36.95Q44.75 39.53 45.80 42.27Q46.85 45.00 47.86 47.62Q48.88 50.25 49.79 52.56L49.79 52.56L50.07 52.56Q52.45 45.98 54.80 39.81Q57.14 33.66 58.89 29.38L58.89 29.38Q59.73 28.97 61.06 28.69Q62.39 28.41 63.79 28.41L63.79 28.41Q66.38 28.41 67.92 29.17Q69.46 29.95 69.81 31.48L69.81 31.48Q70.09 32.81 70.44 35.72Q70.79 38.63 71.14 42.34Q71.49 46.05 71.84 50.25Q72.19 54.45 72.47 58.33Q72.75 62.22 72.96 65.44Q73.17 68.66 73.24 70.48L73.24 70.48Q72.33 71.04 71.31 71.31Q70.30 71.59 68.83 71.59L68.83 71.59Q67.01 71.59 65.64 70.86Q64.28 70.13 64.14 68.09L64.14 68.09Q63.86 63.69 63.65 59.45Q63.44 55.22 63.30 51.44Q63.16 47.66 63.02 44.47Q62.88 41.28 62.81 38.98L62.81 38.98L62.46 38.98Q61.34 42.27 59.38 47.34Q57.42 52.42 54.41 60.40Z" fill="#3b3952"></path></svg>